<svg width="500" height="373" viewBox="0 0 500 373" fill="none" xmlns="http://www.w3.org/2000/svg">
<path d="M609.712 -292C600.113 -243.438 587.544 -195.247 568.035 -149.751C561.711 -135.001 554.606 -120.459 544.98 -107.618C525.351 -81.4315 496.565 -63.9141 472.511 -41.7217C441.961 -13.5377 419.069 22.771 406.388 62.3281C396.847 92.0931 389.429 128.956 370.816 154.669C353.907 178.027 313.753 180.804 288.639 191.171C262.916 201.79 240.782 220.419 225.125 243.346C216.924 255.357 210.462 268.581 206.189 282.49C202.104 295.791 203.141 312.055 186.003 315.313C180.339 316.39 174.515 315.193 168.749 315.204C148.708 315.244 130.077 332.017 127.941 351.943M609.039 -290.112C600.366 -241.935 588.298 -193.861 568.921 -148.591C562.477 -133.51 555.027 -118.858 545.398 -105.622C533.762 -89.6694 518.885 -76.7244 503.61 -64.095C493.183 -55.4731 482.569 -46.9992 472.67 -37.8181C453.115 -19.6795 436.363 1.44645 423.081 24.3223C415.315 37.6987 408.739 51.6736 403.495 66.0336C399.795 76.105 396.329 86.9657 392.581 97.9077C387.294 113.282 381.441 128.816 373.656 142.73C370.866 147.729 367.828 152.519 364.476 156.998C350.61 175.504 323.006 181.965 299.869 189.499C293.657 191.509 287.766 193.595 282.543 196.015C261.022 205.909 242.278 221.506 227.952 240.486C225.484 243.753 223.147 247.122 220.947 250.582C213.101 262.921 206.948 276.444 202.764 290.603C200.287 298.989 199.658 308.466 195.493 315.357C192.93 319.6 189.026 322.832 182.558 324.264C176.907 325.514 171.086 324.587 165.306 324.804C145.23 325.542 126.387 342.385 123.818 362.507M608.365 -288.225C600.619 -240.432 589.051 -192.476 569.804 -147.431C563.24 -132.016 555.446 -117.256 545.813 -103.629C534.207 -87.2881 519.355 -73.8983 504.023 -60.882C493.555 -51.9929 482.861 -43.2772 472.822 -33.9147C452.989 -15.4245 435.716 5.80695 421.689 28.53C413.488 41.8148 406.406 55.6124 400.596 69.7389C396.475 79.6547 392.572 90.3096 388.391 101.028C382.48 116.093 376.004 131.288 367.736 145.101C364.782 150.061 361.602 154.835 358.128 159.331C343.725 177.932 316.284 185.23 293.476 193.665C287.358 195.902 281.577 198.235 276.443 200.865C255.38 211.656 237.189 227.898 223.463 247.444C221.1 250.805 218.868 254.27 216.766 257.822C209.273 270.49 203.43 284.311 199.337 298.72C196.913 307.258 196.22 316.842 192.021 323.906C189.433 328.259 185.514 331.596 179.112 333.218C173.472 334.646 167.656 333.986 161.862 334.408C141.753 335.842 122.694 352.759 119.695 373.072M607.692 -286.34C600.87 -238.93 589.806 -191.09 570.69 -146.273C564.004 -130.527 555.867 -115.658 546.232 -101.636C534.657 -84.9067 519.83 -71.0735 504.441 -57.6702C493.933 -48.5125 483.161 -39.5564 472.978 -30.014C452.868 -11.1723 435.072 10.1647 420.301 32.7321C411.664 45.9281 404.114 59.5642 397.698 73.4401C393.181 83.2117 388.813 93.6494 384.204 104.142C377.667 118.899 370.571 133.753 361.819 147.465C358.702 152.382 355.377 157.145 351.787 161.656C336.845 180.352 309.592 188.546 287.087 197.822C281.068 200.302 275.387 202.857 270.346 205.704C249.724 217.355 232.102 234.283 218.979 254.392C216.719 257.851 214.59 261.408 212.589 265.052C205.452 278.048 199.918 292.167 195.916 306.826C193.545 315.517 192.79 325.206 188.555 332.443C185.943 336.908 182.011 340.352 175.668 342.161C170.041 343.768 164.229 343.373 158.42 344C138.275 346.132 119.002 363.117 115.572 383.628M607.019 -284.452C601.123 -237.427 590.56 -189.703 571.578 -145.112C564.772 -129.032 556.318 -114.038 546.651 -99.6411C535.139 -82.5012 520.305 -68.2472 504.861 -54.4542C494.313 -45.0307 483.461 -35.8313 473.137 -26.109C452.75 -6.91431 434.434 14.5282 418.917 36.9414C409.844 50.0458 401.797 63.5131 394.806 77.1471C389.874 86.7687 385.062 96.9935 380.022 107.265C372.861 121.713 365.142 136.228 355.906 149.838C352.625 154.715 349.157 159.464 345.448 163.99C329.968 182.78 302.888 191.827 280.7 201.987C274.777 204.699 269.2 207.485 264.253 210.551C244.074 223.058 227.019 240.673 214.497 261.348C212.339 264.902 210.313 268.554 208.413 272.289C201.631 285.612 196.406 300.031 192.494 314.939C190.176 323.782 189.357 333.575 185.087 340.988C182.452 345.564 178.505 349.117 172.226 351.112C166.61 352.898 160.803 352.768 154.981 353.6C134.8 356.43 115.314 373.487 111.453 394.189M606.346 -282.567C601.378 -235.926 591.316 -188.318 572.462 -143.953C565.535 -127.541 556.745 -112.434 547.067 -97.6489C535.592 -80.1171 520.777 -65.4226 505.276 -51.2426C494.688 -41.5505 483.757 -32.1108 473.29 -22.2085C452.627 -2.66226 433.788 18.8845 417.527 41.1449C408.019 54.1604 399.473 67.4547 391.909 80.8482C386.561 90.3171 381.33 100.346 375.834 110.381C368.081 124.539 359.676 138.671 349.988 152.203C346.532 157.031 342.932 161.773 339.102 166.316C323.084 185.202 296.177 195.097 274.307 206.147C268.481 209.09 263.007 212.11 258.153 215.394C238.415 228.752 221.93 247.058 210.009 268.3C207.956 271.95 206.032 275.695 204.23 279.524C197.805 293.177 192.888 307.895 189.066 323.052C186.801 332.048 185.919 341.947 181.613 349.533C178.955 354.22 174.993 357.881 168.778 360.062C163.173 362.028 157.373 362.163 151.535 363.199C131.321 366.726 111.621 383.855 107.327 404.753M605.673 -280.679C601.631 -234.422 592.071 -186.932 573.348 -142.793C566.302 -126.049 557.171 -110.831 547.486 -95.6538C536.048 -77.7301 521.25 -62.5963 505.694 -48.028C495.064 -38.0687 484.055 -28.3858 473.448 -18.305C452.507 1.59419 433.148 23.2464 416.14 45.3512C406.196 58.2752 397.15 71.4007 389.014 84.5523C383.25 93.8698 377.578 103.69 371.649 113.498C363.275 127.353 354.24 141.136 344.072 154.571C340.452 159.356 336.711 164.088 332.76 168.644C316.205 187.624 289.472 198.368 267.917 210.307C262.188 213.481 256.818 216.73 252.057 220.238C232.762 234.446 216.844 253.445 205.523 275.253C203.573 278.998 201.753 282.837 200.051 286.757C193.981 300.737 189.373 315.754 185.641 331.162C183.429 340.31 182.484 350.315 178.142 358.074C175.462 362.871 171.483 366.647 165.332 369.011C159.737 371.16 153.942 371.555 148.092 372.795C127.842 377.019 107.926 394.22 103.205 415.311M604.999 -278.792C601.881 -232.919 592.823 -185.547 574.231 -141.633C567.064 -124.557 557.593 -109.229 547.9 -93.6601C536.498 -75.3458 521.72 -59.7702 506.107 -44.8151C495.438 -34.5871 484.35 -24.6637 473.6 -14.403C452.382 5.84778 432.499 27.6055 414.748 49.5561C404.371 62.3899 394.823 75.3452 386.114 88.2562C379.931 97.4238 373.82 107.035 367.459 116.618C358.462 130.167 348.8 143.603 338.152 156.94C334.368 161.681 330.483 166.402 326.413 170.974C309.318 190.05 282.761 201.639 261.523 214.468C255.89 217.871 250.624 221.353 245.955 225.082C227.102 240.135 211.752 259.834 201.034 282.207C199.186 286.048 197.471 289.983 195.868 293.992C190.153 308.3 185.854 323.616 182.211 339.274C180.052 348.574 179.044 358.686 174.667 366.617C171.963 371.524 167.97 375.415 161.881 377.959C156.296 380.292 150.508 380.948 144.644 382.392C124.359 387.311 104.231 404.585 99.0754 425.871M604.326 -276.907C602.136 -231.418 593.579 -184.163 575.119 -140.474C567.831 -123.064 558.019 -107.628 548.32 -91.6664C536.952 -72.963 522.195 -56.9441 506.528 -41.6006C495.819 -31.1067 484.652 -20.9402 473.759 -10.4982C452.264 10.1055 431.859 31.9674 413.364 53.7651C402.55 66.5087 392.499 79.2925 383.221 91.963C376.619 100.979 370.071 110.382 363.278 119.738C353.659 132.984 343.37 146.071 332.24 159.31C328.289 164.01 324.264 168.717 320.074 173.305C302.442 192.475 276.058 204.907 255.136 218.631C249.598 222.263 244.437 225.975 239.861 229.925C221.447 245.822 206.669 266.221 196.554 289.159C194.811 293.096 193.198 297.124 191.693 301.227C186.334 315.864 182.343 331.479 178.792 347.387C176.686 356.839 175.614 367.055 171.202 375.162C168.474 380.18 164.466 384.188 158.441 386.909C152.867 389.427 147.084 390.341 141.207 391.992C120.887 397.609 100.545 414.955 94.9598 436.433M603.653 -275.019C602.389 -229.915 594.334 -182.776 576.003 -139.312C568.595 -121.571 558.443 -106.024 548.735 -89.6699C537.401 -70.5774 522.665 -54.1151 506.942 -38.3846C496.192 -27.6222 484.944 -17.2153 473.912 -6.59468C452.141 14.3606 431.214 36.3294 411.973 57.9701C400.725 70.6235 390.171 83.2356 380.324 95.6671C373.302 104.532 366.315 113.727 359.089 122.856C348.847 135.797 337.933 148.537 326.32 161.679C322.206 166.336 318.037 171.032 313.727 175.635C295.556 194.901 269.345 208.175 248.742 222.795C243.301 226.655 238.242 230.6 233.76 234.772C215.785 251.507 201.579 272.611 192.063 296.115C190.422 300.147 188.913 304.269 187.51 308.464C182.506 323.428 178.826 339.343 175.362 355.501C173.311 365.105 172.174 375.428 167.727 383.708C164.976 388.838 160.953 392.962 154.991 395.862C149.426 398.567 143.651 399.739 137.758 401.593C117.403 407.907 96.8447 425.324 90.829 446.997M602.98 -273.133C602.642 -228.414 595.089 -181.391 576.889 -138.154C569.361 -120.08 558.868 -104.425 549.154 -87.6775C537.853 -68.1945 523.141 -51.2916 507.358 -35.1714C496.568 -24.1418 485.242 -13.4931 474.067 -2.69116C452.019 18.6171 430.569 40.6901 410.584 62.178C398.899 74.7411 387.841 87.1802 377.428 99.3726C369.985 108.085 362.561 117.074 354.903 125.978C344.036 138.614 332.499 151.007 320.406 164.051C316.127 168.665 311.815 173.35 307.386 177.967C288.678 197.327 262.64 211.44 242.354 226.959C237.009 231.049 232.053 235.223 227.664 239.619C210.126 257.19 196.493 279.001 187.579 303.071C186.042 307.201 184.635 311.416 183.333 315.702C178.684 330.994 175.312 347.209 171.94 363.614C169.941 373.37 168.742 383.799 164.259 392.253C161.485 397.494 157.448 401.737 151.549 404.812C145.995 407.706 140.228 409.145 134.318 411.193C113.943 418.248 93.1575 435.693 86.7094 457.561M602.306 -271.247C602.893 -226.91 595.841 -180.005 577.774 -136.996C570.124 -118.589 559.289 -102.824 549.57 -85.6853C538.302 -65.8146 523.612 -48.4669 507.774 -31.9598C496.943 -20.6616 485.539 -9.77249 474.22 1.20935C451.895 22.8692 429.922 45.0477 409.194 66.3814C397.075 78.8544 385.509 91.1218 374.53 103.074C366.667 111.633 358.804 120.415 350.716 129.092C339.224 141.422 327.065 153.471 314.487 166.416C310.045 170.989 305.591 175.659 301.04 180.294C281.794 199.749 255.926 214.7 235.96 231.118C230.71 235.434 225.857 239.839 221.563 244.461C204.461 262.865 191.403 285.388 183.089 310.023C181.656 314.247 180.355 318.557 179.15 322.935C174.856 338.555 171.793 355.069 168.512 371.724C166.566 381.633 165.302 392.167 160.786 400.794C157.989 406.145 153.938 410.511 148.099 413.759C142.557 416.843 136.796 418.536 130.87 420.787C110.462 428.538 89.4603 446.057 82.5827 468.117M601.633 -269.359C603.147 -225.407 596.597 -178.617 578.66 -135.833C570.891 -117.094 559.713 -101.221 549.989 -83.6874C538.753 -63.429 524.085 -45.6379 508.191 -28.7424C497.321 -17.1784 485.838 -6.04606 474.378 5.11571C451.776 27.1285 429.282 49.4125 407.809 70.592C395.253 82.9748 383.182 95.0691 371.635 106.783C363.351 115.19 355.05 123.765 346.531 132.217C334.413 144.241 321.632 155.944 308.572 168.789C303.965 173.319 299.367 177.978 294.7 182.628C274.916 202.178 249.218 217.965 229.574 235.285C224.42 239.828 219.669 244.463 215.471 249.31C198.802 268.545 186.321 291.779 178.61 316.981C177.28 321.302 176.081 325.705 174.976 330.176C171.039 346.125 168.283 362.936 165.092 379.843C163.2 389.904 161.874 400.543 157.32 409.345C154.5 414.805 150.434 419.295 144.659 422.716C139.129 425.991 133.372 427.938 127.432 430.394C106.991 438.843 85.7729 456.431 78.463 478.687M600.96 -267.474C603.399 -223.906 597.266 -177.27 579.546 -134.675C571.618 -115.62 560.133 -99.6225 550.406 -81.6964C539.201 -61.0503 524.558 -42.8145 508.609 -25.5307C497.699 -13.698 486.135 -2.32393 474.534 9.01638C451.655 31.3807 428.639 53.7689 406.42 74.7941C393.43 87.0867 380.849 99.0051 368.739 110.483C360.032 118.735 351.292 127.103 342.346 135.331C329.602 147.05 316.201 158.407 302.656 171.154C297.887 175.642 293.144 180.289 288.357 184.955C268.034 204.6 242.506 221.22 223.183 239.443C218.125 244.213 213.476 249.079 209.372 254.151C193.135 274.216 181.233 298.163 174.123 323.929C172.895 328.346 171.8 332.843 170.796 337.406C167.214 353.682 164.767 370.793 161.666 387.949C159.826 398.162 158.436 408.908 153.848 417.882C151.004 423.454 146.927 428.066 141.212 431.659C135.695 435.127 129.943 437.326 123.99 439.985C103.516 449.132 82.0814 466.792 74.3419 489.241M600.286 -265.587C603.653 -222.403 598.019 -175.885 580.429 -133.515C572.38 -114.128 560.553 -98.0232 550.821 -79.7027C539.646 -58.6689 525.028 -39.9883 509.023 -22.3176C498.071 -10.2177 486.431 1.39823 474.687 12.9199C451.529 35.6357 427.994 58.1309 405.029 79.0019C391.602 91.2043 378.513 102.948 365.84 114.189C356.708 122.287 347.534 130.448 338.156 138.451C324.785 149.864 310.766 160.878 296.735 173.525C291.802 177.972 286.918 182.605 282.01 187.285C261.149 207.025 235.789 224.48 216.788 243.606C211.824 248.603 207.279 253.699 203.269 258.996C187.459 279.891 176.141 304.552 169.632 330.885C168.508 335.396 167.516 339.987 166.612 344.642C163.386 361.247 161.248 378.658 158.236 396.063C156.448 406.427 154.996 417.279 150.373 426.428C147.506 432.111 143.416 436.849 137.763 440.611C132.258 444.274 126.511 446.72 120.542 449.585C100.034 459.429 78.3858 477.16 70.2126 499.803M599.615 -263.7C603.906 -220.9 598.777 -174.499 581.316 -132.356C573.146 -112.637 560.975 -96.424 551.241 -77.7092C540.096 -56.2877 525.504 -37.1622 509.442 -19.1046C498.45 -6.73608 486.731 5.1202 474.845 16.8204C451.411 39.8878 427.352 62.4885 403.643 83.2067C389.782 95.3189 376.183 106.887 362.947 117.891C353.393 125.835 343.78 133.789 333.972 141.568C319.974 152.671 305.336 163.346 290.82 175.891C285.725 180.296 280.697 184.917 275.669 189.611C254.27 209.447 229.077 227.733 210.4 247.764C205.529 252.987 201.087 258.314 197.175 263.839C181.792 285.559 171.056 310.939 165.149 337.837C164.129 342.445 163.241 347.131 162.436 351.876C159.565 368.809 157.737 386.518 154.815 404.175C153.08 414.691 151.566 425.648 146.907 434.971C144.016 440.766 139.915 445.63 134.321 449.561C128.83 453.418 123.085 456.115 117.102 459.184C96.5605 469.725 74.6955 487.528 66.0942 510.366M598.941 -261.814C604.157 -219.398 599.614 -173.078 582.2 -131.196C573.948 -111.126 561.393 -94.8232 551.655 -75.7153C540.541 -53.9062 525.975 -34.3373 509.856 -15.8914C498.824 -3.25704 487.025 8.84107 474.997 20.724C451.286 44.1443 426.705 66.8491 402.252 87.4117C387.955 99.4336 373.847 110.825 360.046 121.595C350.067 129.382 340.019 137.132 329.783 144.687C315.158 155.484 299.901 165.815 284.901 178.26C279.642 182.624 274.469 187.232 269.322 191.942C247.386 211.871 222.358 230.989 204.006 251.928C199.231 257.378 194.889 262.935 191.074 268.684C176.117 291.23 165.966 317.328 160.66 344.791C159.744 349.494 158.958 354.275 158.252 359.113C155.737 376.373 154.216 394.382 151.385 412.288C149.703 422.956 148.125 434.02 143.432 443.515C140.518 449.418 136.406 454.411 130.87 458.509C125.394 462.561 119.645 465.495 113.654 468.782C93.0554 479.978 70.9999 497.894 61.9649 520.925M598.266 -259.927C604.411 -217.895 600.369 -171.692 583.086 -130.036C574.715 -109.635 561.816 -93.2236 552.074 -73.72C540.988 -51.5246 526.448 -31.511 510.275 -12.6753C499.204 0.227647 487.324 12.5675 475.154 24.6289C451.167 48.4009 426.064 71.2127 400.865 91.621C386.133 103.553 371.514 114.766 357.152 125.302C346.749 132.933 336.263 140.475 325.598 147.808C310.345 158.296 294.47 168.288 278.985 180.631C273.564 184.952 268.248 189.547 262.98 194.273C240.505 214.298 215.641 234.245 197.617 256.09C192.935 261.766 188.696 267.551 184.978 273.528C170.443 296.9 160.881 323.715 156.176 351.745C155.363 356.545 154.681 361.418 154.074 366.347C151.913 383.935 150.703 402.242 147.961 420.399C146.332 431.221 144.69 442.389 139.963 452.058C137.025 458.072 132.904 463.194 127.427 467.458C121.967 471.707 116.217 474.887 110.212 478.379C89.5792 490.272 67.3085 508.261 57.8425 531.487M597.595 -258.04C604.665 -216.393 601.125 -170.307 583.973 -128.877C575.482 -108.143 562.237 -91.6256 552.493 -71.7277C541.436 -49.1459 526.923 -28.6862 510.694 -9.46363C499.58 3.70657 487.623 16.2883 475.313 28.5297C451.047 52.6546 425.422 75.5705 399.481 95.8246C384.312 107.666 369.185 118.7 354.26 129.004C343.432 136.478 332.51 143.815 321.416 150.923C305.534 161.101 289.044 170.754 273.074 182.997C267.488 187.278 262.029 191.859 256.641 196.6C233.627 216.721 208.926 237.498 191.23 260.25C186.641 266.149 182.503 272.167 178.884 278.371C164.767 302.566 155.798 330.101 151.693 358.695C150.983 363.59 150.405 368.558 149.898 373.579C148.093 391.494 147.192 410.102 144.54 428.506C142.964 439.479 141.259 450.754 136.496 460.596C133.536 466.721 129.408 471.971 123.984 476.403C118.543 480.85 112.792 484.277 106.773 487.973C86.103 500.562 63.6198 518.622 53.7243 542.043M596.921 -256.154C604.917 -214.892 601.878 -168.922 584.856 -127.717C576.244 -106.651 562.652 -90.0251 552.908 -69.7313C541.879 -46.7633 527.393 -25.8574 511.107 -6.24782C499.954 7.191 487.918 20.0131 475.464 32.4344C450.922 56.9108 424.775 79.9337 398.086 100.032C382.484 111.784 366.844 122.638 351.358 132.709C340.106 140.025 328.746 147.157 317.225 154.044C300.715 163.913 283.608 173.228 267.152 185.368C261.404 189.607 255.8 194.175 250.294 198.931C226.743 219.146 202.202 240.753 184.836 264.414C180.34 270.54 176.304 276.786 172.782 283.217C159.083 308.237 150.705 336.492 147.204 365.652C146.599 370.643 146.122 375.706 145.715 380.817C144.267 399.062 143.673 417.968 141.112 436.621C139.589 447.747 137.822 459.127 133.024 469.144C130.04 475.381 125.904 480.761 120.538 485.357C115.112 490.004 109.361 493.674 103.329 497.577C82.6252 510.863 59.9267 528.996 49.5989 552.61M596.248 -254.269C605.17 -213.389 602.632 -167.536 585.742 -126.559C577.01 -105.16 563.071 -88.4286 553.325 -67.7405C542.324 -44.3848 527.865 -23.0341 511.524 -3.03765C500.329 10.6684 488.216 23.7323 475.621 36.3336C450.801 61.163 424.132 84.29 396.701 104.234C380.662 115.895 364.513 126.57 348.465 136.409C336.788 143.567 324.992 150.492 313.041 157.158C295.902 166.717 278.179 175.694 261.237 187.732C255.326 191.933 249.578 196.484 243.951 201.257C219.861 221.568 195.48 244.004 178.445 268.572C174.042 274.922 170.107 281.4 166.686 288.058C153.404 313.904 145.62 342.876 142.718 372.602C142.215 377.688 141.844 382.844 141.536 388.049C140.441 406.623 140.158 425.826 137.687 444.731C136.218 456.008 134.384 467.495 129.553 477.686C126.546 484.034 122.404 489.545 117.091 494.303C111.685 499.149 105.932 503.065 99.8837 507.171C79.1446 521.155 56.2338 539.359 45.4751 563.167M595.575 -252.38C605.423 -211.885 603.386 -166.15 586.628 -125.396C577.774 -103.665 563.489 -86.8279 553.744 -65.7426C542.77 -42.002 528.34 -20.2036 511.943 0.181161C500.71 14.1544 488.515 27.4615 475.778 40.2412C450.682 65.4222 423.489 88.6547 395.314 108.446C378.841 120.017 362.179 130.511 345.568 140.12C333.468 147.12 321.235 153.839 308.855 160.283C291.089 169.529 272.748 178.172 255.32 190.107C249.246 194.266 243.354 198.805 237.608 203.592C212.98 223.997 188.757 247.262 172.054 272.739C167.743 279.316 163.908 286.025 160.587 292.908C147.718 319.577 140.532 349.269 138.231 379.561C137.832 384.745 137.564 389.993 137.356 395.29C136.617 414.192 136.642 433.695 134.26 452.848C132.845 464.278 130.949 475.87 126.081 486.235C123.051 492.691 118.903 498.334 113.644 503.259C108.258 508.303 102.499 512.464 96.44 516.775C75.6656 531.457 52.5409 549.733 41.3498 573.733M594.901 -250.494C605.675 -210.384 604.141 -164.763 587.513 -124.237C578.54 -102.174 563.907 -85.23 554.16 -63.7503C543.211 -39.6235 528.812 -17.3803 512.358 3.39281C501.083 17.6333 488.81 31.1807 475.932 44.1432C450.558 69.6771 422.846 93.0139 393.924 112.65C377.014 124.13 359.842 134.442 342.671 143.821C330.145 150.661 317.475 157.177 304.668 163.4C286.273 172.335 267.318 180.643 249.403 192.473C243.167 196.593 237.13 201.118 231.265 205.921C206.098 226.421 182.032 250.513 165.664 276.899C161.445 283.701 157.711 290.639 154.489 297.75C142.033 325.244 135.445 355.655 133.747 386.512C133.452 391.79 133.285 397.135 133.179 402.523C132.795 421.753 133.128 441.554 130.838 460.959C129.475 472.54 127.515 484.239 122.613 494.777C119.559 501.345 115.408 507.118 110.201 512.207C104.836 517.452 99.074 521.857 92.9989 526.371C72.1906 541.749 48.8492 560.097 37.2301 584.292M594.228 -248.608C605.929 -208.882 604.895 -163.38 588.397 -123.079C579.304 -100.683 564.281 -83.6519 554.576 -61.7579C543.608 -37.2662 529.283 -14.5569 512.773 6.60456C501.459 21.1137 489.107 34.9016 476.086 48.0426C450.436 73.9281 422.201 97.3703 392.534 116.853C375.19 128.244 357.507 138.373 339.773 147.522C326.823 154.203 313.716 160.515 300.481 166.514C281.459 175.138 261.91 183.148 243.484 194.838C237.092 198.928 230.906 203.427 224.92 208.246C199.217 228.841 175.306 253.763 159.273 281.058C155.145 288.085 151.514 295.254 148.391 302.592C136.347 330.909 130.356 362.04 129.259 393.462C129.066 398.836 129.006 404.274 128.996 409.755C128.968 429.313 129.612 449.414 127.41 469.069C126.1 480.803 124.077 492.606 119.139 503.318C116.063 509.998 111.907 515.902 106.753 521.154C101.409 526.6 95.6433 531.249 89.5539 535.968C68.7102 552.044 45.1564 570.462 33.1049 594.853M593.555 -246.72C606.181 -207.377 605.65 -161.993 589.283 -121.918C580.07 -99.1893 564.703 -82.0497 554.995 -59.7628C544.057 -34.8833 529.757 -11.7292 513.191 9.81916C501.835 24.5955 489.406 38.6252 476.243 51.9475C450.316 78.186 421.56 101.734 391.148 121.061C373.367 132.362 355.176 142.308 336.88 151.228C323.504 157.749 309.951 163.831 296.296 169.634C276.633 177.911 256.477 185.619 237.57 197.207C231.016 201.256 224.684 205.742 218.578 210.576C192.336 231.267 168.582 257.017 152.883 285.221C148.847 292.472 145.315 299.872 142.296 307.437C130.662 336.579 125.272 368.429 124.777 400.418C124.687 405.888 124.73 411.42 124.82 416.992C125.147 436.878 126.099 457.279 123.987 477.182C122.731 489.068 120.645 500.976 115.671 511.863C112.571 518.654 108.412 524.689 103.308 530.105C97.9872 535.751 92.214 540.643 86.1116 545.567C65.234 562.34 41.4636 580.831 28.9811 605.415M592.882 -244.835C606.434 -205.877 606.405 -160.609 590.171 -120.759C580.836 -97.6986 565.126 -80.4504 555.414 -57.7706C544.507 -32.502 530.231 -8.90453 513.61 13.0322C502.216 28.0757 489.705 42.3487 476.4 55.8495C450.195 82.4409 420.917 106.093 389.761 125.267C371.546 136.478 352.842 146.24 333.984 154.933C320.184 161.293 306.196 167.173 292.11 172.756C271.82 180.723 251.045 188.091 231.653 199.579C224.934 203.587 218.46 208.06 212.235 212.908C185.455 233.693 161.853 260.272 146.492 289.384C142.547 296.862 139.115 304.492 136.197 312.284C124.971 342.251 120.184 374.819 120.289 407.373C120.303 412.938 120.447 418.565 120.639 424.229C121.321 444.442 122.582 465.143 120.562 485.295C119.359 497.333 117.21 509.348 112.201 520.408C109.077 527.309 104.915 533.477 99.8634 539.055C94.5668 544.904 88.7859 550.038 82.6678 555.166C61.7548 572.636 37.7719 591.197 24.8586 615.976M592.208 -242.949C606.687 -204.374 607.158 -159.224 591.054 -119.599C581.599 -96.205 565.543 -78.8497 555.829 -55.7754C544.953 -30.1192 530.702 -6.07701 514.025 16.2467C502.591 31.5588 490.001 46.0721 476.555 59.7529C450.074 86.6958 420.272 110.453 388.372 129.472C369.721 140.592 350.509 150.172 331.087 158.635C316.863 164.836 302.441 170.514 287.925 175.871C267.009 183.529 245.612 190.559 225.739 201.945C218.857 205.911 212.238 210.372 205.893 215.236C178.575 236.116 155.127 263.525 140.104 293.543C136.249 301.247 132.918 309.107 130.101 317.125C119.281 347.917 115.098 381.203 115.805 414.324C115.922 419.986 116.171 425.705 116.462 431.461C117.501 452.004 119.069 473.001 117.14 493.405C115.989 505.596 113.776 517.715 108.733 528.949C105.586 535.96 101.424 542.263 96.421 548.003C91.1478 554.052 85.3592 559.429 79.2282 564.763C58.2798 582.931 34.0831 601.564 20.7374 626.536M591.535 -241.061C606.94 -202.871 607.914 -157.836 591.94 -118.439C582.363 -94.7127 565.964 -77.249 556.247 -53.7818C545.4 -27.7379 531.175 -3.25085 514.441 19.4611C502.965 35.0405 490.298 49.7957 476.709 63.6578C449.949 90.9523 419.628 114.817 386.983 133.681C367.897 144.711 348.16 154.074 328.191 162.344C313.534 168.359 298.686 173.86 283.737 178.994C262.196 186.344 240.178 193.031 219.82 204.319C212.775 208.244 206.013 212.689 199.549 217.569C171.693 238.544 148.341 266.756 133.712 297.71C129.934 305.632 126.718 313.73 124.002 321.974C113.589 353.594 110.009 387.597 111.318 421.281C111.538 427.038 111.891 432.853 112.281 438.701C113.675 459.571 115.552 480.868 113.712 501.521C112.613 513.863 110.338 526.09 105.259 537.497C102.089 544.618 97.926 551.053 92.9718 556.957C87.7261 563.209 81.927 568.828 75.7817 574.367C54.7994 593.232 30.3874 611.935 16.6122 637.102M590.862 -239.175C607.192 -201.369 608.667 -156.451 592.824 -117.28C583.13 -93.2218 566.385 -75.6481 556.664 -51.788C545.848 -25.3564 531.647 -0.425983 514.857 22.6743C503.342 38.5223 490.596 53.5179 476.863 67.56C449.827 95.206 418.982 119.176 385.593 137.888C366.072 148.826 345.829 158.012 325.294 166.048C310.214 171.906 294.929 177.201 279.552 182.113C257.386 189.154 234.745 195.502 213.903 206.688C206.694 210.57 199.789 215.004 193.206 219.898C164.811 240.969 141.622 270.015 127.321 301.871C123.637 310.021 120.502 318.343 117.905 326.817C107.832 359.243 104.923 393.983 106.833 428.234C107.158 434.087 107.612 439.995 108.101 445.934C109.85 467.132 112.038 488.728 110.287 509.631C109.241 522.125 106.904 534.458 101.788 546.039C98.5953 553.272 94.4324 559.838 89.5256 565.904C84.306 572.356 78.4964 578.217 72.3381 583.96C51.3205 603.522 26.6947 622.298 12.4885 647.659M590.188 -237.288C607.445 -199.866 609.42 -155.066 593.709 -116.121C583.893 -91.7307 566.805 -74.0486 557.079 -49.794C546.294 -22.9734 532.118 2.399 515.271 25.8876C503.715 42.0014 490.888 57.2401 477.017 71.4621C449.704 99.4612 418.337 123.535 384.203 142.092C364.247 152.941 343.497 161.948 322.396 169.749C306.896 175.452 291.172 180.542 275.363 185.229C252.572 191.962 229.311 197.969 207.985 209.053C200.611 212.895 193.563 217.315 186.86 222.225C157.928 243.389 134.901 273.274 120.928 306.03C117.336 314.406 114.302 322.96 111.804 331.66C102.156 364.92 99.8318 400.367 102.343 435.185C102.771 441.134 103.33 447.135 103.918 453.166C106.023 474.692 108.519 496.588 106.859 517.741C105.866 530.388 103.464 542.826 98.315 554.581C95.0985 561.925 90.9373 568.622 86.0778 574.851C80.8857 581.506 75.0657 587.61 68.8931 593.557C47.8401 613.815 23.0018 632.664 8.36341 658.218M589.516 -235.402C607.699 -198.364 610.177 -153.68 594.596 -114.96C584.66 -90.2358 567.227 -72.4466 557.498 -47.7991C546.743 -20.5908 532.593 5.2264 515.69 29.1034C504.095 45.4858 491.189 60.9649 477.174 75.3669C449.584 103.717 417.697 127.897 382.816 146.301C362.424 157.058 341.167 165.889 319.5 173.457C303.577 179.003 287.416 183.887 271.176 188.351C247.76 194.775 223.875 200.442 202.066 211.426C194.53 215.226 187.34 219.634 180.515 224.558C151.045 245.818 128.182 276.539 114.536 310.197C111.039 318.801 108.108 327.586 105.705 336.509C96.4804 370.605 94.7435 406.76 97.8561 442.144C98.3859 448.189 99.0491 454.285 99.7384 460.407C102.198 482.261 105.002 504.456 103.432 525.858C102.492 538.657 100.028 551.201 94.8426 563.129C91.6029 570.585 87.4558 577.423 82.6298 583.807C77.4776 590.674 71.6333 597.009 65.4478 603.162C44.3594 624.118 19.3073 643.039 4.23791 668.787M588.842 -233.515C607.951 -196.862 610.93 -152.295 595.481 -113.801C585.423 -88.7449 567.648 -70.8486 557.915 -45.8054C547.19 -18.2093 533.066 8.05265 516.107 32.3165C481.564 81.7405 435.15 122.986 381.427 150.506C345.29 169.017 306.34 181.458 266.991 191.467C242.949 197.583 218.443 202.909 196.151 213.791C155.169 233.797 124.549 271.801 108.147 314.354C91.7447 356.907 88.6842 403.729 93.3723 449.093C97.6246 490.26 107.765 533.667 91.3748 571.668C72.6293 615.129 24.3928 638.71 0.117041 679.341M698.746 8.86962C664.066 -27.1093 616.453 -50.3534 566.755 -55.5643C552.616 -57.0464 537.781 -57.0072 524.867 -51.0619C487.555 -33.8809 479.41 16.7197 468.32 51.8032C454.936 94.14 442.568 136.879 425.753 178.03C416.314 201.133 402.975 225.976 379.134 233.357C354.991 240.829 329.978 227.566 306.88 217.309C279.967 205.355 250.848 196.978 221.426 198.237C192.004 199.497 162.192 211.336 143.563 234.144C128.975 252.006 122.229 274.943 117.708 297.558C105.834 356.98 107.068 418.984 121.299 477.887M698.126 6.45029C667.476 -25.3489 626.1 -45.2887 580.47 -52.4221C576.232 -53.0848 571.981 -53.6542 567.713 -54.0775C553.689 -55.4624 539.011 -55.3926 526.206 -49.6066C489.162 -32.8846 480.353 16.141 468.861 50.7514C458.674 81.4362 449.209 112.566 437.985 143.355C434.105 154.05 430.035 164.679 425.683 175.209C416.241 198.048 403.051 222.588 379.703 230.233C356.061 237.973 331.581 225.65 308.946 216.228C282.57 205.252 254.048 197.726 225.189 199.499C215.141 200.116 205.042 201.972 195.363 205.082C177.248 210.897 160.597 221.098 148.514 235.775C133.999 253.404 127.031 275.899 122.183 298.006C112.357 342.752 109.947 388.675 115.091 433.792C116.625 447.255 118.832 460.643 121.72 473.905M697.506 4.03389C667.878 -26.7056 627.59 -44.3573 581.309 -51.0365C577.109 -51.6417 572.899 -52.1913 568.673 -52.5863C554.763 -53.8713 540.243 -53.7737 527.544 -48.147C490.764 -31.8839 481.297 15.5639 469.404 49.7039C458.957 79.6938 449.381 110.355 437.96 140.92C434.052 151.48 429.967 161.983 425.614 172.391C416.172 194.969 403.128 219.205 380.274 227.113C357.131 235.12 333.185 223.737 311.016 215.151C285.179 205.151 257.249 198.478 228.956 200.765C219.104 201.563 209.197 203.554 199.691 206.753C181.902 212.729 165.493 222.925 153.47 237.408C139.03 254.807 131.84 276.856 126.663 298.457C116.154 342.181 112.706 386.731 116.64 430.731C117.813 443.861 119.642 456.938 122.147 469.924M696.886 1.61486C668.279 -28.0635 629.087 -43.4355 582.149 -49.6536C577.984 -50.2056 573.817 -50.7338 569.634 -51.0992C555.84 -52.287 541.476 -52.1559 528.886 -46.6913C492.373 -30.8872 482.251 14.9801 469.949 48.6524C459.247 77.9447 449.486 108.111 437.94 138.481C433.98 148.899 429.903 159.283 425.548 169.572C416.104 191.886 403.208 215.819 380.849 223.99C358.206 232.262 334.795 221.821 313.088 214.071C287.789 205.048 260.455 199.227 232.726 202.026C223.069 203.005 213.354 205.131 204.02 208.417C186.556 214.554 170.391 224.743 158.429 239.037C144.063 256.205 136.651 277.81 131.144 298.903C119.952 341.61 115.467 384.784 118.191 427.668C119.004 440.464 120.456 453.228 122.579 465.941M696.266 -0.801601C668.681 -29.4203 630.588 -42.5208 582.987 -48.2667C578.859 -48.764 574.733 -49.2711 570.592 -49.6068C556.912 -50.6947 542.706 -50.5357 530.223 -45.2319C493.978 -29.8867 483.207 14.4002 470.49 47.6062C459.539 76.2009 449.635 105.892 437.914 136.048C433.919 146.328 429.834 156.587 425.478 166.756C416.033 188.808 403.286 212.437 381.418 220.871C359.276 229.412 336.399 219.91 315.154 212.996C290.393 204.951 263.654 199.979 236.488 203.293C227.027 204.451 217.505 206.712 208.342 210.088C191.206 216.387 175.283 226.569 163.378 240.672C149.084 257.609 141.452 278.77 135.616 299.354C123.742 341.041 118.22 382.841 119.731 424.61C120.181 437.074 121.257 449.525 122.997 461.963M695.645 -3.21911C669.082 -30.7781 632.093 -41.6142 583.825 -46.8823C579.734 -47.3277 575.65 -47.8093 571.552 -48.1182C557.987 -49.1089 543.937 -48.9179 531.563 -43.7734C495.585 -28.8872 484.169 13.8166 471.033 46.5591C459.84 74.4576 449.79 103.671 437.892 133.613C433.862 143.757 429.769 153.892 425.412 163.939C415.966 185.728 403.366 209.054 381.992 217.752C360.349 226.559 338.009 217.997 317.225 211.921C293.001 204.85 266.858 200.732 240.257 204.561C230.992 205.899 221.662 208.296 212.671 211.76C195.86 218.219 180.178 228.396 168.337 242.307C154.117 259.013 146.264 279.731 140.098 299.807C127.544 340.475 120.982 380.901 121.284 421.553C121.373 433.684 122.072 445.824 123.427 457.987M695.025 -5.63841C669.484 -32.1377 633.602 -40.7218 584.663 -45.501C580.611 -45.8959 576.566 -46.3535 572.511 -46.6314C559.062 -47.5235 545.167 -47.3033 532.9 -42.3195C497.188 -27.8909 485.136 13.2256 471.573 45.5059C460.145 72.7069 449.94 101.445 437.864 131.172C433.8 141.179 429.697 151.19 425.339 161.115C415.892 182.642 403.44 205.663 382.558 214.625C361.415 223.699 339.61 216.078 319.288 210.838C295.602 204.744 270.055 201.478 244.017 205.82C234.948 207.338 225.81 209.869 216.991 213.424C200.506 220.044 185.068 230.214 173.285 243.934C159.14 260.41 151.064 280.684 144.569 300.252C131.332 339.899 123.734 378.951 122.824 418.487C122.551 430.285 122.873 442.113 123.847 453.999M694.405 -8.05472C669.885 -33.493 635.116 -39.8334 585.501 -44.114C581.486 -44.4598 577.482 -44.8905 573.47 -45.1401C560.135 -45.9337 546.397 -45.6829 534.239 -40.8584C498.794 -26.8901 486.111 12.6433 472.118 44.4599C460.46 70.9636 450.099 99.2248 437.842 128.74C433.744 138.612 429.63 148.496 425.273 158.301C415.824 179.564 403.52 202.283 383.132 211.509C362.489 220.85 341.217 214.167 321.36 209.763C298.214 204.646 273.261 202.232 247.788 207.088C238.914 208.785 229.969 211.452 221.322 215.095C205.163 221.876 189.969 232.041 178.245 245.571C164.172 261.814 155.876 281.644 149.05 300.706C135.132 339.334 126.495 377.012 124.374 415.433C123.74 426.898 123.684 438.415 124.274 450.026M693.785 -10.474C670.287 -34.8525 636.635 -38.9604 586.34 -42.7313C582.364 -43.0294 578.401 -43.4319 574.43 -43.6519C561.211 -44.3469 547.63 -44.0655 535.58 -39.4017C500.401 -25.8923 487.094 12.0524 472.66 43.4095C460.782 69.2159 450.255 97.0018 437.819 126.301C433.687 136.034 429.563 145.795 425.204 155.481C415.755 176.482 403.598 198.895 383.704 208.388C363.56 217.995 342.823 212.254 323.429 208.686C300.82 204.546 276.463 202.984 251.554 208.353C242.876 210.229 234.124 213.031 225.647 216.763C209.815 223.706 194.862 233.863 183.198 247.204C169.201 263.217 160.682 282.602 153.527 301.158C138.927 338.765 129.253 375.069 125.921 412.373C124.925 423.507 124.491 434.709 124.701 446.048M693.163 -12.8917C670.687 -36.2106 638.153 -38.0956 587.178 -41.3471C583.241 -41.5974 579.317 -41.9718 575.39 -42.1635C562.284 -42.7601 548.861 -42.4479 536.919 -37.9462C502.006 -24.8945 488.082 11.4632 473.203 42.3593C461.111 67.4698 450.415 94.7804 437.796 123.865C433.631 133.464 429.496 143.098 425.137 152.662C415.686 173.4 403.676 195.511 384.276 205.267C364.632 215.141 344.43 210.341 325.498 207.608C303.427 204.446 279.666 203.736 255.321 209.619C246.839 211.676 238.278 214.613 229.974 218.432C214.466 225.537 199.757 235.689 188.154 248.836C174.229 264.617 165.489 283.559 158.005 301.606C142.724 338.195 132.011 373.124 127.47 409.313C126.113 420.112 125.301 431.003 125.128 442.066M692.545 -15.3093C671.091 -37.5684 639.679 -37.2404 588.016 -39.9627C584.118 -40.1681 580.234 -40.5129 576.347 -40.675C563.357 -41.1729 550.09 -40.8316 538.255 -36.4878C503.61 -23.895 489.075 10.8742 473.742 41.3106C461.442 65.7267 450.572 92.5591 437.767 121.429C433.57 130.891 429.424 140.401 425.064 149.844C415.612 170.32 403.751 192.125 384.843 202.146C365.698 212.286 346.032 208.427 327.562 206.531C306.03 204.345 282.863 204.487 259.081 210.884C250.795 213.119 242.424 216.192 234.293 220.101C219.112 227.366 204.646 237.512 193.102 250.469C179.251 266.021 170.29 284.517 162.476 302.057C146.513 337.625 134.761 371.179 129.009 406.253C127.291 416.72 126.102 427.299 125.545 438.087M691.924 -17.7272C671.491 -38.9267 641.203 -36.3981 588.854 -38.5787C584.994 -38.7392 581.15 -39.0515 577.307 -39.1867C564.43 -39.5861 551.32 -39.2141 539.594 -35.0325C505.217 -22.8986 490.08 10.2849 474.285 40.2602C461.786 63.9819 450.734 90.3362 437.745 118.991C433.517 128.318 429.358 137.702 424.998 147.024C415.545 167.237 403.832 188.741 385.418 199.022C366.774 209.43 347.641 206.508 329.635 205.452C308.64 204.242 286.07 205.237 262.852 212.146C254.762 214.561 246.584 217.768 238.625 221.768C223.77 229.193 209.546 239.333 198.062 252.1C184.285 267.421 175.101 285.473 166.96 302.505C150.316 337.054 137.524 369.234 130.561 403.191C128.481 413.325 126.916 423.592 125.977 434.103M691.304 -20.1434C671.892 -40.2818 642.73 -35.5665 589.694 -37.1929C585.874 -37.3098 582.067 -37.5981 578.267 -37.6954C565.507 -38.0213 552.554 -37.5936 540.935 -33.5727C506.823 -21.8992 491.091 9.70024 474.831 39.213C462.14 62.2445 450.901 88.1192 437.723 116.556C433.465 125.748 429.292 135.004 424.93 144.207C415.475 164.158 403.91 185.357 385.988 195.903C367.844 206.577 349.247 204.596 331.704 204.375C311.247 204.142 289.273 205.988 266.619 213.412C258.726 216.008 250.739 219.35 242.952 223.437C228.423 231.026 214.442 241.159 203.019 253.733C189.315 268.822 179.91 286.43 171.439 302.956C154.113 336.484 140.284 367.29 132.111 400.132C129.67 409.933 127.727 419.888 126.406 430.126M690.684 -22.5626C672.294 -41.6413 644.259 -34.7506 590.532 -35.8088C586.75 -35.8836 582.985 -36.138 579.226 -36.207C566.581 -36.4358 553.784 -35.9761 542.272 -32.1159C508.427 -20.8999 492.111 9.11537 475.371 38.1626C462.497 60.5042 451.062 85.8991 437.698 114.119C433.41 123.173 429.224 132.305 424.861 141.387C415.405 161.074 403.987 181.971 386.559 192.781C368.914 203.721 350.852 202.682 333.772 203.296C313.854 204.04 292.475 206.738 270.384 214.675C262.683 217.451 254.892 220.927 247.274 225.106C233.071 232.854 219.333 242.982 207.968 255.365C194.339 270.223 184.713 287.386 175.912 303.404C157.904 335.914 143.037 365.345 133.651 397.071C130.848 406.54 128.529 416.183 126.824 426.145M690.062 -24.9805C672.695 -42.9995 645.787 -33.9458 591.37 -34.4247C587.627 -34.4574 583.901 -34.678 580.184 -34.7174C567.654 -34.849 555.014 -34.3586 543.611 -30.6577C510.033 -19.9007 493.138 8.53339 475.914 37.1151C462.863 58.7709 451.231 83.6804 437.673 111.684C433.355 120.603 429.155 129.609 424.792 138.57C415.335 157.995 404.065 178.586 387.13 189.661C369.985 200.869 352.457 200.77 335.84 202.22C316.459 203.941 295.675 207.492 274.149 215.943C266.645 218.899 259.045 222.51 251.599 226.777C237.722 234.685 224.226 244.807 212.922 257.001C199.367 271.628 189.518 288.348 180.388 303.86C161.698 335.349 145.793 363.407 135.198 394.017C132.034 403.152 129.337 412.484 127.25 422.17M689.444 -27.3982C673.098 -44.3575 647.319 -33.1548 592.209 -33.0419C588.506 -33.0338 584.819 -33.2207 581.145 -33.2304C568.73 -33.2649 556.246 -32.7425 544.95 -29.2023C511.64 -18.9043 494.178 7.95152 476.455 36.0635C463.235 57.0348 451.398 81.4605 437.648 109.246C433.3 118.031 429.087 126.911 424.723 135.75C415.265 154.912 404.142 175.2 387.7 186.539C371.055 198.014 354.061 198.853 337.908 201.142C319.066 203.838 298.876 208.241 277.915 217.205C270.607 220.341 263.199 224.086 255.926 228.443C242.374 236.514 229.121 246.63 217.879 258.632C204.397 273.027 194.327 289.303 184.867 304.307C165.496 334.777 148.553 361.46 136.747 390.953C133.219 399.755 130.146 408.774 127.676 418.186M688.822 -29.8159C673.497 -45.7141 648.848 -32.3776 593.046 -31.6562C589.382 -31.6087 585.733 -31.759 582.102 -31.7391C569.802 -31.6736 557.482 -31.0996 546.288 -27.7425C513.264 -17.8364 495.224 7.3796 476.997 35.0175C463.615 55.3102 451.568 79.2462 437.624 106.811C433.248 115.461 429.018 124.215 424.654 132.933C415.195 151.833 404.22 171.816 388.271 183.42C372.124 195.162 355.667 196.942 339.977 200.064C321.673 203.738 302.079 208.993 281.682 218.471C274.569 221.786 267.354 225.668 260.252 230.113C247.028 238.345 234.017 248.454 222.833 260.265C209.424 274.431 199.132 290.262 189.344 304.758C169.291 334.207 151.31 359.517 138.292 387.895C134.404 396.364 130.953 405.072 128.101 414.21M688.204 -32.2335C673.901 -47.072 650.379 -31.6131 593.887 -30.272C590.261 -30.1851 586.653 -30.2974 583.065 -30.2507C570.879 -30.088 558.716 -29.4834 547.632 -26.2856C514.873 -16.8398 496.282 6.80916 477.545 33.9674C464.011 53.5842 451.746 77.0292 437.606 104.375C433.203 112.891 428.957 121.518 424.591 130.116C415.13 148.752 404.303 168.433 388.849 180.301C373.203 192.312 357.281 195.03 342.052 198.99C324.286 203.641 305.288 209.747 285.453 219.739C278.537 223.234 271.513 227.251 264.583 231.784C251.685 240.177 238.917 250.281 227.793 261.901C214.457 275.835 203.946 291.224 193.827 305.212C173.093 333.642 154.072 357.579 139.845 384.839C135.595 392.975 131.769 401.369 128.533 410.232M687.582 -34.6512C674.3 -48.4314 651.908 -30.8638 594.723 -28.8863C591.138 -28.7615 587.568 -28.8372 584.022 -28.7594C571.951 -28.4968 559.944 -27.863 548.966 -24.826C516.474 -15.8377 497.345 6.24857 478.083 32.92C464.402 51.8652 451.914 74.8163 437.577 101.939C433.148 110.321 428.883 118.819 424.518 127.297C415.057 145.672 404.379 165.049 389.416 177.181C374.269 189.457 358.882 193.116 344.115 197.913C326.887 203.539 308.484 210.497 289.213 221.004C282.493 224.679 275.662 228.83 268.903 233.453C256.329 242.007 243.804 252.104 232.74 263.533C219.478 277.236 208.745 292.18 198.297 305.661C176.881 333.07 156.821 355.632 141.386 381.778C136.774 389.581 132.57 397.664 128.951 406.252M686.962 -37.0704C674.702 -49.7909 653.434 -30.1314 595.561 -27.5049C592.014 -27.3435 588.485 -27.3785 584.982 -27.2739C573.026 -26.9141 561.176 -26.2496 550.307 -23.3719C518.08 -14.844 498.421 5.68789 478.627 31.8683C464.806 50.1476 452.094 72.6005 437.555 99.5013C433.099 107.749 428.817 116.121 424.451 124.476C414.988 142.587 404.457 161.662 389.988 174.057C375.34 186.6 360.487 191.199 346.184 196.832C329.494 203.436 311.687 211.245 292.982 222.266C286.457 226.119 279.818 230.408 273.232 235.119C260.984 243.834 248.702 253.925 237.699 265.164C224.512 278.636 213.556 293.136 202.779 306.108C180.682 332.499 159.583 353.686 142.935 378.716C137.963 386.185 133.382 393.957 129.379 402.269M686.342 -39.4867C675.103 -51.1462 654.961 -29.413 596.401 -26.1194C592.893 -25.9214 589.402 -25.917 585.942 -25.7828C574.1 -25.323 562.406 -24.6293 551.646 -21.9137C519.684 -13.8448 499.508 5.13986 479.168 30.8194C465.214 48.4369 452.271 70.3876 437.529 97.0651C433.046 105.179 428.749 113.422 424.38 121.658C414.917 139.507 404.532 158.277 390.558 170.935C376.412 183.745 362.093 189.284 348.252 195.754C332.099 203.335 314.887 211.996 296.746 223.529C290.417 227.563 283.971 231.986 277.556 236.786C265.636 245.663 253.596 255.748 242.65 266.794C229.537 280.035 218.36 294.091 207.254 306.557C184.475 331.927 162.338 351.74 144.48 375.654C139.145 382.791 134.187 390.25 129.803 398.286M685.721 -41.9047C675.504 -52.5044 656.484 -28.7101 597.237 -24.734C593.768 -24.5022 590.317 -24.457 586.9 -24.2931C575.173 -23.7335 563.632 -23.0328 552.984 -20.4542C521.273 -12.9085 500.602 4.60299 479.71 29.7733C465.629 46.736 452.45 68.1774 437.506 94.6315C432.997 102.612 428.682 110.727 424.313 118.842C414.847 136.427 404.612 154.894 391.13 167.816C377.483 180.893 363.699 187.373 350.322 194.678C334.709 203.235 318.091 212.749 300.514 224.797C294.382 229.01 288.126 233.569 281.884 238.457C270.288 247.495 258.492 257.573 247.607 268.43C234.566 281.441 223.168 295.052 211.732 307.011C188.271 331.362 165.096 349.801 146.028 372.598C140.333 379.402 134.996 386.548 130.23 394.312M685.102 -44.3223C675.907 -53.8623 658.006 -28.0235 598.078 -23.3496C594.647 -23.0813 591.237 -22.9954 587.861 -22.8032C576.249 -22.1436 564.864 -21.4137 554.324 -18.9972C522.88 -11.9119 501.709 4.07343 480.256 28.7232C466.055 45.0383 452.637 65.9661 437.484 92.194C432.95 100.042 428.616 108.029 424.246 116.023C414.78 133.347 404.69 151.51 391.703 164.696C378.555 178.039 365.306 185.46 352.392 193.6C337.316 203.135 321.294 213.5 304.28 226.061C298.341 230.455 292.28 235.146 286.209 240.126C274.939 249.324 263.385 259.397 252.562 270.062C239.596 282.843 227.976 296.008 216.21 307.46C192.067 330.79 167.855 347.856 147.574 369.538C141.517 376.01 135.803 382.843 130.655 390.33M684.481 -46.74C676.308 -55.2203 659.521 -27.3539 598.915 -21.9668C595.523 -21.6647 592.151 -21.5366 588.819 -21.3162C577.322 -20.5567 566.095 -19.799 555.662 -17.5404C524.485 -10.914 502.823 3.5564 480.796 27.6729C466.479 43.3474 452.818 63.7546 437.458 89.7578C432.899 97.4734 428.545 105.33 424.176 113.205C414.708 130.265 404.767 148.124 392.272 161.575C379.625 175.186 366.91 183.544 354.458 192.523C339.92 203.035 324.494 214.251 308.046 227.326C302.303 231.9 296.433 236.727 290.535 241.795C279.591 251.155 268.281 261.222 257.516 271.696C244.623 284.244 232.782 296.966 220.687 307.91C195.863 330.222 170.612 345.912 149.121 366.478C142.703 372.617 136.612 379.139 131.08 386.351M683.861 -49.1591C676.71 -56.5798 661.036 -26.7038 599.753 -20.5826C596.398 -20.2481 593.067 -20.0695 589.778 -19.8265C578.397 -18.946 567.324 -18.18 557.001 -16.0821C526.09 -9.91327 503.949 3.05203 481.339 26.6255C466.912 41.6649 453.006 61.5503 437.434 87.3216C432.853 94.9047 428.478 102.633 424.108 110.387C414.64 127.185 404.846 144.74 392.844 158.454C380.696 172.331 368.517 181.631 356.527 191.446C342.527 202.932 327.697 215.003 311.811 228.591C306.265 233.345 300.586 238.307 294.861 243.464C284.243 252.985 273.175 263.044 262.47 273.329C249.652 285.647 237.588 297.925 225.164 308.362C199.658 329.653 173.37 343.97 150.668 363.419C143.888 369.225 137.42 375.435 131.505 382.372M683.241 -51.5756C677.11 -57.9352 662.545 -26.0678 600.592 -19.1971C597.276 -18.8288 593.987 -18.6081 590.738 -18.3382C579.473 -17.3592 568.557 -16.5625 558.34 -14.6268C527.696 -8.91691 505.084 2.56148 481.88 25.5738C467.347 39.9879 453.192 59.3415 437.41 84.8839C432.804 92.3357 428.409 99.9343 424.038 107.565C414.568 124.1 404.924 141.352 393.413 155.33C381.765 169.474 370.121 179.714 358.594 190.366C345.131 202.83 330.897 215.751 315.574 229.853C310.223 234.786 304.738 239.883 299.183 245.129C288.892 254.811 278.066 264.866 267.42 274.958C254.676 287.045 242.39 298.878 229.637 308.808C203.45 329.079 176.122 342.022 152.21 360.357C145.068 365.83 138.223 371.728 131.927 378.39M682.621 -53.9948C677.512 -59.2947 664.049 -25.4513 601.432 -17.8144C598.153 -17.4137 594.904 -17.1493 591.697 -16.8498C580.546 -15.7723 569.787 -14.9451 559.679 -13.1686C529.303 -7.91769 506.226 2.08779 482.423 24.5263C467.787 38.3235 453.383 57.1398 437.386 82.4475C432.758 89.7696 428.342 97.237 423.969 104.748C414.498 121.021 405.001 137.969 393.985 152.212C382.836 166.622 371.728 177.804 360.664 189.29C347.741 202.73 334.101 216.503 319.342 231.12C314.187 236.233 308.893 241.466 303.511 246.8C293.544 256.644 282.963 266.691 272.378 276.593C259.707 288.448 247.199 299.838 234.117 309.259C207.248 328.51 178.882 340.078 153.759 357.297C146.257 362.437 139.034 368.023 132.355 374.411M682.001 -56.4111C677.915 -60.6512 665.549 -24.8528 602.27 -16.4273C599.03 -15.9957 595.819 -15.6863 592.657 -15.3585C581.622 -14.1824 571.019 -13.3259 561.018 -11.7102C530.908 -6.91965 507.377 1.63115 482.967 23.4776C468.23 36.6664 453.578 54.9369 437.364 80.0128C432.715 87.2037 428.277 94.5413 423.903 101.931C414.431 117.94 405.082 134.585 394.559 149.093C383.911 163.771 373.335 175.891 362.735 188.214C350.349 202.631 337.304 217.258 323.109 232.387C318.151 237.68 313.049 243.047 307.836 248.471C298.195 258.475 287.857 268.517 277.331 278.227C264.733 289.853 252.004 300.798 238.594 309.712C211.044 327.944 181.639 338.137 155.305 354.239C147.441 359.047 139.842 364.321 132.779 370.433M681.381 -58.8301C678.317 -62.0106 667.04 -24.2739 603.108 -15.0457C599.904 -14.5831 596.737 -14.229 593.615 -13.8716C582.694 -12.5969 572.248 -11.7097 562.357 -10.2547C532.513 -5.92173 508.535 1.18976 483.509 22.426C468.674 35.0147 453.772 52.734 437.338 77.5738C432.667 84.6349 428.207 91.8385 423.833 99.1099C414.36 114.857 405.157 131.198 395.13 145.968C384.981 160.912 374.94 173.973 364.802 187.132C352.955 202.527 340.506 218.005 326.877 233.647C322.113 239.119 317.204 244.623 312.164 250.137C302.851 260.302 292.753 270.339 282.288 279.858C269.763 291.252 256.814 301.752 243.072 310.161C214.841 327.374 184.397 336.192 156.852 351.18C148.627 355.654 140.649 360.615 133.205 366.452M680.76 -61.248C678.716 -63.3674 668.525 -23.7134 603.946 -13.6617C600.779 -13.1695 597.653 -12.769 594.575 -12.3833C583.77 -11.0101 573.481 -10.0923 563.695 -8.79797C534.118 -4.92396 509.698 0.767705 484.05 21.377C469.119 33.3753 453.968 50.5379 437.315 75.1375C432.623 82.0688 428.14 89.1412 423.766 96.2913C414.291 111.775 405.237 127.812 395.702 142.847C386.052 158.057 376.547 172.06 366.872 186.055C355.563 202.426 343.709 218.756 330.642 234.912C326.075 240.564 321.358 246.202 316.489 251.805C307.501 262.132 297.647 272.161 287.243 281.49C274.793 292.653 261.62 302.71 247.55 310.61C218.636 326.802 187.155 334.247 158.4 348.117C149.812 352.26 141.457 356.908 133.631 362.472M680.14 -63.6644C679.118 -64.7241 670.005 -23.1724 604.784 -12.2748C601.653 -11.7516 598.571 -11.306 595.533 -10.8907C584.843 -9.42033 574.71 -8.47048 565.034 -7.33688C535.724 -3.92182 510.867 0.370935 484.592 20.3309C469.562 31.7486 454.196 48.3658 437.289 72.704C432.584 79.5125 428.07 86.4468 423.695 93.4756C414.22 108.698 405.313 124.43 396.271 139.728C387.122 155.207 378.152 170.148 368.938 184.98C358.167 202.329 346.909 219.51 334.406 236.181C330.035 242.013 325.51 247.786 320.813 253.477C312.15 263.965 302.539 273.988 292.194 283.126C279.818 294.058 266.425 303.671 252.025 311.064C222.43 326.238 189.91 332.307 159.945 345.062C150.997 348.871 142.264 353.208 134.056 358.495M679.52 -66.0835C679.52 -66.0835 671.477 -22.6522 605.623 -10.8919C539.769 0.868451 497.649 -14.8761 437.267 70.2664C395.542 129.103 369.636 198.301 325.141 255.143C306.834 278.529 283.549 298.869 256.504 311.512C226.227 325.665 192.67 330.361 161.492 342C152.182 345.477 143.074 349.5 134.481 354.513" stroke="white" stroke-width="0.197078" stroke-miterlimit="10"/>
</svg>
