<svg width="22" height="22" viewBox="0 0 22 22" fill="none" xmlns="http://www.w3.org/2000/svg">
<g opacity="0.25">
<path d="M10.535 1.83334C12.8107 1.83334 14.6667 3.6575 14.6667 5.90334V10.2942H9.07078C8.66974 10.2942 8.35263 10.6058 8.35263 11C8.35263 11.385 8.66974 11.7058 9.07078 11.7058H14.6667V16.0875C14.6667 18.3333 12.8107 20.1667 10.5164 20.1667H5.97436C3.68936 20.1667 1.83337 18.3425 1.83337 16.0967V5.9125C1.83337 3.6575 3.69868 1.83334 5.98369 1.83334H10.535ZM16.9952 7.83769C17.2702 7.55352 17.7194 7.55352 17.9944 7.82852L20.6711 10.496C20.8086 10.6335 20.8819 10.8077 20.8819 11.0002C20.8819 11.1835 20.8086 11.3669 20.6711 11.4952L17.9944 14.1627C17.8569 14.3002 17.6736 14.3735 17.4994 14.3735C17.3161 14.3735 17.1327 14.3002 16.9952 14.1627C16.7202 13.8877 16.7202 13.4385 16.9952 13.1635L18.4619 11.706H14.6669V10.2944H18.4619L16.9952 8.83685C16.7202 8.56185 16.7202 8.11269 16.9952 7.83769Z" fill="#EFEEE0"/>
</g>
</svg>
