<svg width="16" height="16" viewBox="0 0 16 16" fill="none" xmlns="http://www.w3.org/2000/svg">
<path d="M12.8067 10.0067C12.08 9.96002 11.3333 10.2267 10.78 10.78C9.74 11.82 9.74 13.5067 10.78 14.5534C11.1333 14.9067 11.5667 15.14 12.0267 15.2534C12.28 15.32 12.5467 15.34 12.8133 15.3267C13.4467 15.3 14.0667 15.0467 14.5533 14.56C15.24 13.8734 15.4733 12.9067 15.2533 12.0334C15.1467 11.5734 14.9067 11.14 14.5533 10.7867C14.0733 10.3 13.4467 10.04 12.8067 10.0067ZM14.16 12.6534C14.16 12.7934 14.1067 12.9134 14.0133 13.0067C13.92 13.1 13.8 13.1534 13.66 13.1534H13.1667V13.6734C13.1667 13.8134 13.1133 13.9334 13.02 14.0267C12.9267 14.12 12.8067 14.1734 12.6667 14.1734C12.3933 14.1734 12.1667 13.9467 12.1667 13.6734V13.1534H11.6667C11.3933 13.1534 11.1667 12.9267 11.1667 12.6534C11.1667 12.38 11.3933 12.1534 11.6667 12.1534H12.1667V11.68C12.1667 11.4067 12.3933 11.18 12.6667 11.18C12.94 11.18 13.1667 11.4067 13.1667 11.68V12.1534H13.66C13.94 12.1534 14.16 12.38 14.16 12.6534Z" fill="#FACD66"/>
<path d="M8.15334 8.04669C7.88 8.04669 7.66 8.26669 7.66 8.54003C7.66 8.81336 7.88 9.03336 8.15334 9.03336C8.42667 9.03336 8.64667 8.81336 8.64667 8.54003C8.64667 8.26669 8.42667 8.04669 8.15334 8.04669Z" fill="#FACD66"/>
<path d="M4.50667 8.70673C4.23334 8.70673 4.01334 8.92673 4.01334 9.20006C4.01334 9.47339 4.23334 9.69339 4.50667 9.69339C4.78 9.69339 5 9.47339 5 9.20006C5 8.92673 4.78 8.70673 4.50667 8.70673Z" fill="#FACD66"/>
<path d="M10.7933 1.33331H5.20668C5.02001 1.33331 4.84001 1.33998 4.66668 1.36665C2.56668 1.55998 1.33334 2.96665 1.33334 5.20665V10.7933C1.33334 13.0333 2.56668 14.44 4.66668 14.6333C4.84001 14.66 5.02001 14.6666 5.20668 14.6666H9.00001C9.26001 14.6666 9.42668 14.3733 9.32668 14.1333C9.13334 13.6733 9.00001 13.14 9.00001 12.6666C9.00001 10.6466 10.6467 8.99998 12.6667 8.99998C13.1733 8.99998 13.6667 9.09998 14.12 9.29998C14.3667 9.40665 14.6667 9.23998 14.6667 8.97331V5.20665C14.6667 2.77998 13.22 1.33331 10.7933 1.33331ZM9.65334 5.36665V8.53998C9.65334 8.54665 9.64668 8.55331 9.64668 8.56665C9.63334 9.37998 8.97334 10.04 8.15334 10.04C7.32668 10.04 6.66001 9.36665 6.66001 8.54665C6.66001 7.71998 7.33334 7.05331 8.15334 7.05331C8.32668 7.05331 8.49334 7.08665 8.65334 7.14665V6.01998L6.00668 6.73998V9.20665C6.00668 9.21331 6.00001 9.21998 6.00001 9.22665C5.98668 10.04 5.32668 10.6933 4.50668 10.6933C3.68001 10.6933 3.01334 10.02 3.01334 9.19998C3.01334 8.37998 3.68668 7.70665 4.50668 7.70665C4.68001 7.70665 4.84668 7.73998 5.00001 7.79998V6.35998V5.19331C5.00001 4.57331 5.38668 4.07331 5.98001 3.91331L7.96668 3.36665C8.58668 3.19998 8.96668 3.36665 9.18001 3.52665C9.48668 3.75998 9.64001 4.13998 9.64001 4.64665V5.36665H9.65334Z" fill="#FACD66"/>
</svg>
