<svg width="14" height="14" viewBox="0 0 14 14" fill="none" xmlns="http://www.w3.org/2000/svg">
<path d="M4.51987 0.666973C4.93987 0.679746 5.34654 0.75308 5.74054 0.88708H5.77987C5.80654 0.899746 5.82654 0.913746 5.83987 0.926413C5.9872 0.973746 6.12654 1.02708 6.25987 1.10041L6.5132 1.21375C6.6132 1.26708 6.7332 1.36641 6.79987 1.40708C6.86654 1.44641 6.93987 1.48708 6.99987 1.53308C7.74054 0.96708 8.63987 0.660413 9.56654 0.666973C9.9872 0.666973 10.4072 0.726413 10.8065 0.860413C13.2672 1.66041 14.1539 4.36041 13.4132 6.72041C12.9932 7.92641 12.3065 9.02708 11.4072 9.92641C10.1199 11.1731 8.7072 12.2797 7.18654 13.2331L7.01987 13.3337L6.84654 13.2264C5.32054 12.2797 3.89987 11.1731 2.60054 9.91975C1.7072 9.02041 1.01987 7.92641 0.593202 6.72041C-0.160131 4.36041 0.726535 1.66041 3.21387 0.846413C3.4072 0.779746 3.60654 0.73308 3.80654 0.70708H3.88654C4.07387 0.679746 4.25987 0.666973 4.44654 0.666973H4.51987ZM10.4599 2.77375C10.1865 2.67975 9.88654 2.82708 9.78654 3.10708C9.6932 3.38708 9.83987 3.69375 10.1199 3.79308C10.5472 3.95308 10.8332 4.37375 10.8332 4.83975V4.86041C10.8205 5.01308 10.8665 5.16041 10.9599 5.27375C11.0532 5.38708 11.1932 5.45308 11.3399 5.46708C11.6132 5.45975 11.8465 5.24041 11.8665 4.95975V4.88041C11.8865 3.94641 11.3205 3.10041 10.4599 2.77375Z" fill="#E5524A"/>
</svg>
