<svg width="16" height="17" viewBox="0 0 16 17" fill="none" xmlns="http://www.w3.org/2000/svg">
<path d="M14.5 12.7593C14.5 12.746 14.4933 12.7327 14.4933 12.7193C14.4867 12.666 14.48 12.6127 14.46 12.566C14.4333 12.506 14.4 12.4593 14.36 12.4127C14.36 12.4127 14.36 12.406 14.3533 12.406C14.3067 12.3593 14.2533 12.326 14.1933 12.2993C14.1333 12.2727 14.0667 12.2593 14 12.2593L10.8867 12.2727C10.8867 12.2727 10.8867 12.2727 10.88 12.2727C10.48 12.2727 10.0933 12.086 9.85333 11.766L9.04 10.7193C8.87333 10.4993 8.56 10.4593 8.34 10.6327C8.12 10.806 8.08 11.1127 8.25333 11.3327L9.06666 12.3793C9.5 12.9393 10.18 13.2727 10.8867 13.2727H10.8933L12.7933 13.266L12.32 13.7393C12.1267 13.9327 12.1267 14.2527 12.32 14.446C12.42 14.546 12.5467 14.5927 12.6733 14.5927C12.8 14.5927 12.9267 14.546 13.0267 14.446L14.36 13.1127C14.4067 13.066 14.44 13.0127 14.4667 12.9527C14.4867 12.886 14.5 12.8193 14.5 12.7593Z" fill="white"/>
<path d="M5.61333 5.23266C5.18 4.63266 4.48667 4.27933 3.74667 4.27933C3.74 4.27933 3.74 4.27933 3.73333 4.27933L2 4.28599C1.72667 4.28599 1.5 4.51266 1.5 4.78599C1.5 5.05933 1.72667 5.28599 2 5.28599L3.74 5.27933H3.74667C4.16667 5.27933 4.56 5.47933 4.8 5.81933L5.52 6.81933C5.62 6.95266 5.77333 7.02599 5.92667 7.02599C6.02667 7.02599 6.13333 6.99266 6.22 6.93266C6.44667 6.76599 6.49333 6.45266 6.33333 6.23266L5.61333 5.23266Z" fill="white"/>
<path d="M14.4933 4.82597C14.4933 4.81263 14.5 4.7993 14.5 4.79263C14.5 4.72597 14.4867 4.6593 14.46 4.5993C14.4333 4.5393 14.4 4.48597 14.3533 4.4393L13.02 3.10597C12.8267 2.91263 12.5067 2.91263 12.3133 3.10597C12.12 3.2993 12.12 3.6193 12.3133 3.81263L12.7867 4.28597L10.9667 4.2793C10.96 4.2793 10.96 4.2793 10.9533 4.2793C10.1867 4.2793 9.46667 4.6593 9.04 5.30597L4.78 11.6926C4.54 12.0526 4.13333 12.2726 3.7 12.2726H3.69333L2 12.2593C1.72667 12.2593 1.5 12.4793 1.5 12.7593C1.5 13.0326 1.72 13.2593 2 13.2593L3.7 13.266C3.70667 13.266 3.70667 13.266 3.71333 13.266C4.48667 13.266 5.2 12.886 5.62667 12.2393L9.88667 5.85263C10.1267 5.49263 10.5333 5.27263 10.9667 5.27263H10.9733L14 5.28597C14.0667 5.28597 14.1267 5.27263 14.1933 5.24597C14.2533 5.2193 14.3067 5.18597 14.3533 5.1393C14.3533 5.1393 14.3533 5.13263 14.36 5.13263C14.4 5.08597 14.44 5.0393 14.46 4.9793C14.48 4.93263 14.4867 4.8793 14.4933 4.82597Z" fill="white"/>
</svg>
