<svg width="18" height="18" viewBox="0 0 18 18" fill="none" xmlns="http://www.w3.org/2000/svg">
<path d="M13.5 12.5625C13.38 12.5625 13.2675 12.525 13.1625 12.45C12.915 12.2625 12.8625 11.91 13.05 11.6625C14.2275 10.095 14.2275 7.90496 13.05 6.33746C12.8625 6.08996 12.915 5.73746 13.1625 5.54996C13.41 5.36246 13.7625 5.41496 13.95 5.66246C15.42 7.62746 15.42 10.3725 13.95 12.3375C13.8375 12.4875 13.6725 12.5625 13.5 12.5625Z" fill="#EFEEE0"/>
<path d="M14.8725 14.4375C14.7525 14.4375 14.64 14.4 14.535 14.325C14.2875 14.1375 14.235 13.785 14.4225 13.5375C16.425 10.8675 16.425 7.13246 14.4225 4.46246C14.235 4.21496 14.2875 3.86246 14.535 3.67496C14.7825 3.48746 15.135 3.53996 15.3225 3.78746C17.625 6.85496 17.625 11.145 15.3225 14.2125C15.2175 14.3625 15.045 14.4375 14.8725 14.4375Z" fill="#EFEEE0"/>
<path d="M10.515 2.83504C9.675 2.37004 8.6025 2.49004 7.5075 3.17254L5.3175 4.54504C5.1675 4.63504 4.995 4.68754 4.8225 4.68754H4.125H3.75C1.935 4.68754 0.9375 5.68504 0.9375 7.50004V10.5C0.9375 12.315 1.935 13.3125 3.75 13.3125H4.125H4.8225C4.995 13.3125 5.1675 13.365 5.3175 13.455L7.5075 14.8275C8.1675 15.24 8.8125 15.4425 9.4125 15.4425C9.8025 15.4425 10.1775 15.3525 10.515 15.165C11.3475 14.7 11.8125 13.7325 11.8125 12.4425V5.55754C11.8125 4.26754 11.3475 3.30004 10.515 2.83504Z" fill="#EFEEE0"/>
</svg>
